<svg
  xmlns="http://www.w3.org/2000/svg"
  version="1.1"
  xmlns:xlink="http://www.w3.org/1999/xlink"
  xmlns:svgjs="http://svgjs.dev/svgjs"
  width="1000"
  height="1000"
  viewBox="0 0 1000 1000"
>
  <rect width="1000" height="1000" fill="#000000"></rect>
  <g transform="matrix(0.7,0,0,0.7,149.5757583318582,438.3626245177213)">
    <svg
      viewBox="0 0 396 70"
      data-background-color="#ffffff"
      preserveAspectRatio="xMidYMid meet"
      height="176"
      width="1000"
      xmlns="http://www.w3.org/2000/svg"
      xmlns:xlink="http://www.w3.org/1999/xlink"
    >
      <g
        id="tight-bounds"
        transform="matrix(1,0,0,1,0.23999957226305924,0.021236069476543662)"
      >
        <svg
          viewBox="0 0 395.52 69.9575278610469"
          height="69.9575278610469"
          width="395.52"
        >
          <g>
            <svg
              viewBox="0 0 508.0654717378153 89.86398764748724"
              height="69.9575278610469"
              width="395.52"
            >
              <g>
                <rect
                  width="3.720112989377166"
                  height="89.86398764748724"
                  x="99.08684306944033"
                  y="0"
                  fill="#ffffff"
                  opacity="1"
                  stroke-width="0"
                  stroke="transparent"
                  fill-opacity="1"
                  class="rect-o-0"
                  data-fill-palette-color="primary"
                  rx="1%"
                  id="o-0"
                  data-palette-color="#50a060"
                ></rect>
              </g>
              <g
                transform="matrix(1,0,0,1,112.54547173781532,0.22354225782956405)"
              >
                <svg
                  viewBox="0 0 395.52 89.41690313182811"
                  height="89.41690313182811"
                  width="395.52"
                >
                  <g id="textblocktransform">
                    <svg
                      viewBox="0 0 395.52 89.41690313182811"
                      height="89.41690313182811"
                      width="395.52"
                      id="textblock"
                    >
                      <g>
                        <svg
                          viewBox="0 0 395.52 89.41690313182811"
                          height="89.41690313182811"
                          width="395.52"
                        >
                          <g transform="matrix(1,0,0,1,0,0)">
                            <svg
                              width="395.52"
                              viewBox="0.4999990463256836 -35.150001525878906 343.25 74.60000610351562"
                              height="89.41690313182811"
                              data-palette-color="#50a060"
                            >
                              <svg></svg><svg></svg>
                              <g
                                class="undefined-text-0"
                                data-fill-palette-color="primary"
                                id="text-0"
                              >
                                <path
                                  xmlns="http://www.w3.org/2000/svg"
                                  d="M13.25-34.5h4.6c0.4 0 0.75 0.107 1.05 0.32 0.3 0.22 0.5 0.513 0.6 0.88v0l11.1 33.3h-4.55l-8.95-28.3c-0.133-0.467-0.273-0.943-0.42-1.43-0.153-0.48-0.297-0.937-0.43-1.37v0h-1.4c-0.133 0.433-0.267 0.89-0.4 1.37-0.133 0.487-0.283 0.963-0.45 1.43v0l-8.95 28.3h-4.55l11.1-33.3c0.1-0.367 0.3-0.66 0.6-0.88 0.3-0.213 0.65-0.32 1.05-0.32zM6.75-14.6h17.5v3.8h-17.5zM63.1-34.5h4.95c1.2 0 1.8 0.617 1.8 1.85v0l1.45 32.65h-4.4l-1.25-30.85h-1.05l-7.7 25.45c-0.267 1-0.9 1.5-1.9 1.5v0h-3.95c-1.033 0-1.7-0.5-2-1.5v0l-7.7-25.45h-1l-1.2 30.85h-4.4l1.35-32.65c0.067-1.233 0.683-1.85 1.85-1.85v0h5c0.933 0 1.55 0.5 1.85 1.5v0l6.45 21.05c0.267 0.767 0.493 1.533 0.68 2.3 0.18 0.767 0.387 1.55 0.62 2.35v0h0.9c0.233-0.8 0.45-1.583 0.65-2.35 0.2-0.767 0.417-1.567 0.65-2.4v0l6.45-20.95c0.267-1 0.9-1.5 1.9-1.5zM91.65-35.15v0c2.5 0 4.627 0.3 6.38 0.9 1.747 0.6 3.147 1.59 4.2 2.97 1.047 1.387 1.813 3.23 2.3 5.53 0.48 2.3 0.72 5.133 0.72 8.5v0c0 3.367-0.24 6.2-0.72 8.5-0.487 2.3-1.253 4.14-2.3 5.52-1.053 1.387-2.453 2.38-4.2 2.98-1.753 0.6-3.88 0.9-6.38 0.9v0c-2.5 0-4.623-0.3-6.37-0.9-1.753-0.6-3.163-1.593-4.23-2.98-1.067-1.38-1.84-3.22-2.32-5.52-0.487-2.3-0.73-5.133-0.73-8.5v0c0-3.367 0.243-6.2 0.73-8.5 0.48-2.3 1.253-4.143 2.32-5.53 1.067-1.38 2.477-2.37 4.23-2.97 1.747-0.6 3.87-0.9 6.37-0.9zM91.65-31.2v0c-2.267 0-4.057 0.433-5.37 1.3-1.32 0.867-2.253 2.307-2.8 4.32-0.553 2.02-0.83 4.797-0.83 8.33v0c0 3.5 0.277 6.267 0.83 8.3 0.547 2.033 1.48 3.483 2.8 4.35 1.313 0.867 3.103 1.3 5.37 1.3v0c2.267 0 4.06-0.433 5.38-1.3 1.313-0.867 2.247-2.317 2.8-4.35 0.547-2.033 0.82-4.8 0.82-8.3v0c0-3.533-0.273-6.31-0.82-8.33-0.553-2.013-1.487-3.453-2.8-4.32-1.32-0.867-3.113-1.3-5.38-1.3zM124.6-34.95v0c2.667 0 4.817 0.29 6.45 0.87 1.633 0.587 2.827 1.597 3.58 3.03 0.747 1.433 1.12 3.45 1.12 6.05v0c0 1.867-0.217 3.423-0.65 4.67-0.433 1.253-1.11 2.22-2.03 2.9-0.913 0.687-2.137 1.13-3.67 1.33v0 0.25c0.567 0.133 1.123 0.407 1.67 0.82 0.553 0.42 1.063 0.97 1.53 1.65 0.467 0.687 0.817 1.513 1.05 2.48v0l3.35 10.9h-4.7l-3.05-10.8c-0.433-1.3-1.017-2.227-1.75-2.78-0.733-0.547-1.683-0.82-2.85-0.82v0c-2.033 0-3.8-0.01-5.3-0.03-1.5-0.013-2.75-0.037-3.75-0.07-1-0.033-1.8-0.05-2.4-0.05v0l0.15-3.65h11.15c1.7-0.033 3.043-0.233 4.03-0.6 0.98-0.367 1.687-1.027 2.12-1.98 0.433-0.947 0.65-2.27 0.65-3.97v0c0-1.7-0.217-3.01-0.65-3.93-0.433-0.913-1.14-1.553-2.12-1.92-0.987-0.367-2.33-0.55-4.03-0.55v0c-2.733 0-5.093 0.017-7.08 0.05-1.98 0.033-3.32 0.05-4.02 0.05v0l-0.7-3.45c1.267-0.133 2.45-0.233 3.55-0.3 1.1-0.067 2.31-0.11 3.63-0.13 1.313-0.013 2.887-0.02 4.72-0.02zM112.7-34.5h4.35v34.5h-4.35zM151-34.5h4.4v34.5h-4.4zM139.9-34.5h26.65v3.9h-26.65zM172.1-34.5h4.4v34.5h-4.4zM183.25-3.75l18.4-27.05 4.8 0.05-18.35 27.05zM183.25-3.75h23.55v3.75h-23.55zM183.55-34.5h22.9v3.75h-22.9zM222.4-34.5h4.6c0.4 0 0.75 0.107 1.05 0.32 0.3 0.22 0.5 0.513 0.6 0.88v0l11.1 33.3h-4.55l-8.95-28.3c-0.133-0.467-0.273-0.943-0.42-1.43-0.153-0.48-0.297-0.937-0.43-1.37v0h-1.4c-0.133 0.433-0.267 0.89-0.4 1.37-0.133 0.487-0.283 0.963-0.45 1.43v0l-8.95 28.3h-4.55l11.1-33.3c0.1-0.367 0.3-0.66 0.6-0.88 0.3-0.213 0.65-0.32 1.05-0.32zM215.9-14.6h17.5v3.8h-17.5zM249.6-34.5h4.4v34.5h-4.4zM238.5-34.5h26.65v3.9h-26.65zM270.7-34.5h4.4v34.5h-4.4zM296.15-35.15v0c2.5 0 4.627 0.3 6.38 0.9 1.747 0.6 3.147 1.59 4.2 2.97 1.047 1.387 1.813 3.23 2.3 5.53 0.48 2.3 0.72 5.133 0.72 8.5v0c0 3.367-0.24 6.2-0.72 8.5-0.487 2.3-1.253 4.14-2.3 5.52-1.053 1.387-2.453 2.38-4.2 2.98-1.753 0.6-3.88 0.9-6.38 0.9v0c-2.5 0-4.623-0.3-6.37-0.9-1.753-0.6-3.163-1.593-4.23-2.98-1.067-1.38-1.84-3.22-2.32-5.52-0.487-2.3-0.73-5.133-0.73-8.5v0c0-3.367 0.243-6.2 0.73-8.5 0.48-2.3 1.253-4.143 2.32-5.53 1.067-1.38 2.477-2.37 4.23-2.97 1.747-0.6 3.87-0.9 6.37-0.9zM296.15-31.2v0c-2.267 0-4.057 0.433-5.37 1.3-1.32 0.867-2.253 2.307-2.8 4.32-0.553 2.02-0.83 4.797-0.83 8.33v0c0 3.5 0.277 6.267 0.83 8.3 0.547 2.033 1.48 3.483 2.8 4.35 1.313 0.867 3.103 1.3 5.37 1.3v0c2.267 0 4.06-0.433 5.38-1.3 1.313-0.867 2.247-2.317 2.8-4.35 0.547-2.033 0.82-4.8 0.82-8.3v0c0-3.533-0.273-6.31-0.82-8.33-0.553-2.013-1.487-3.453-2.8-4.32-1.32-0.867-3.113-1.3-5.38-1.3zM339.4-34.5h4.35v32.75c0 1.167-0.567 1.75-1.7 1.75v0h-4.3c-0.5 0-0.9-0.117-1.2-0.35-0.3-0.233-0.55-0.583-0.75-1.05v0l-11.65-24.45c-0.3-0.667-0.65-1.417-1.05-2.25-0.4-0.833-0.7-1.6-0.9-2.3v0h-0.8c0.067 0.733 0.117 1.483 0.15 2.25 0.033 0.767 0.05 1.533 0.05 2.3v0 25.85h-4.4v-32.75c0-1.167 0.583-1.75 1.75-1.75v0h4.15c0.5 0 0.9 0.117 1.2 0.35 0.3 0.233 0.55 0.583 0.75 1.05v0l11.3 23.85c0.367 0.7 0.76 1.49 1.18 2.37 0.413 0.887 0.803 1.763 1.17 2.63v0h0.85c-0.033-0.9-0.067-1.783-0.1-2.65-0.033-0.867-0.05-1.733-0.05-2.6v0z"
                                  fill="#ffffff"
                                  fill-rule="nonzero"
                                  stroke="none"
                                  stroke-width="1"
                                  stroke-linecap="butt"
                                  stroke-linejoin="miter"
                                  stroke-miterlimit="10"
                                  stroke-dasharray=""
                                  stroke-dashoffset="0"
                                  font-family="none"
                                  font-weight="none"
                                  font-size="none"
                                  text-anchor="none"
                                  style="mix-blend-mode: normal"
                                  data-fill-palette-color="primary"
                                  opacity="1"
                                ></path>
                                <path
                                  xmlns="http://www.w3.org/2000/svg"
                                  d="M16.6 3.7v0c1.467 0 2.727 0.033 3.78 0.1 1.047 0.067 2.013 0.173 2.9 0.32 0.88 0.153 1.787 0.347 2.72 0.58v0l-0.45 3.35c-1-0.1-1.923-0.183-2.77-0.25-0.853-0.067-1.763-0.117-2.73-0.15-0.967-0.033-2.117-0.05-3.45-0.05v0c-2.233 0-4 0.433-5.3 1.3-1.3 0.867-2.223 2.317-2.77 4.35-0.553 2.033-0.83 4.8-0.83 8.3v0c0 3.5 0.277 6.267 0.83 8.3 0.547 2.033 1.47 3.483 2.77 4.35 1.3 0.867 3.067 1.3 5.3 1.3v0c2.133 0 3.927-0.043 5.38-0.13 1.447-0.08 2.87-0.22 4.27-0.42v0l0.45 3.3c-1.433 0.4-2.907 0.693-4.42 0.88-1.52 0.18-3.413 0.27-5.68 0.27v0c-3.3 0-5.94-0.577-7.92-1.73-1.987-1.147-3.42-3.02-4.3-5.62-0.887-2.6-1.33-6.1-1.33-10.5v0c0-4.4 0.443-7.9 1.33-10.5 0.88-2.6 2.313-4.477 4.3-5.63 1.98-1.147 4.62-1.72 7.92-1.72zM41.75 4.3h4.6c0.4 0 0.75 0.107 1.05 0.32 0.3 0.22 0.5 0.513 0.6 0.88v0l11.1 33.3h-4.55l-8.95-28.3c-0.133-0.467-0.277-0.943-0.43-1.43-0.147-0.48-0.287-0.937-0.42-1.37v0h-1.4c-0.133 0.433-0.267 0.89-0.4 1.37-0.133 0.487-0.283 0.963-0.45 1.43v0l-8.95 28.3h-4.55l11.1-33.3c0.1-0.367 0.3-0.66 0.6-0.88 0.3-0.213 0.65-0.32 1.05-0.32zM35.25 24.2h17.5v3.8h-17.5zM63.85 4.3h4.35v27.5c0 1.133 0.277 1.967 0.83 2.5 0.547 0.533 1.387 0.8 2.52 0.8v0h12.45l0.2 3.4c-2.167 0.167-4.373 0.267-6.62 0.3-2.253 0.033-4.497 0.05-6.73 0.05v0c-2.533 0-4.333-0.617-5.4-1.85-1.067-1.233-1.6-2.783-1.6-4.65v0zM101.1 3.7v0c1.467 0 2.727 0.033 3.78 0.1 1.047 0.067 2.013 0.173 2.9 0.32 0.88 0.153 1.787 0.347 2.72 0.58v0l-0.45 3.35c-1-0.1-1.923-0.183-2.77-0.25-0.853-0.067-1.763-0.117-2.73-0.15-0.967-0.033-2.117-0.05-3.45-0.05v0c-2.233 0-4 0.433-5.3 1.3-1.3 0.867-2.223 2.317-2.77 4.35-0.553 2.033-0.83 4.8-0.83 8.3v0c0 3.5 0.277 6.267 0.83 8.3 0.547 2.033 1.47 3.483 2.77 4.35 1.3 0.867 3.067 1.3 5.3 1.3v0c2.133 0 3.927-0.043 5.38-0.13 1.447-0.08 2.87-0.22 4.27-0.42v0l0.45 3.3c-1.433 0.4-2.907 0.693-4.42 0.88-1.52 0.18-3.413 0.27-5.68 0.27v0c-3.3 0-5.94-0.577-7.92-1.73-1.987-1.147-3.42-3.02-4.3-5.62-0.887-2.6-1.33-6.1-1.33-10.5v0c0-4.4 0.443-7.9 1.33-10.5 0.88-2.6 2.313-4.477 4.3-5.63 1.98-1.147 4.62-1.72 7.92-1.72zM137.8 4.3h4.4v21.3c0 3.333-0.4 6.017-1.2 8.05-0.8 2.033-2.1 3.507-3.9 4.42-1.8 0.92-4.217 1.38-7.25 1.38v0c-3.1 0-5.583-0.46-7.45-1.38-1.867-0.913-3.217-2.387-4.05-4.42-0.833-2.033-1.25-4.717-1.25-8.05v0-21.3h4.4v21.3c0 2.467 0.26 4.423 0.78 5.87 0.513 1.453 1.37 2.487 2.57 3.1 1.2 0.62 2.8 0.93 4.8 0.93v0c2 0 3.593-0.31 4.78-0.93 1.18-0.613 2.037-1.647 2.57-3.1 0.533-1.447 0.8-3.403 0.8-5.87v0zM150.55 4.3h4.35v27.5c0 1.133 0.277 1.967 0.83 2.5 0.547 0.533 1.387 0.8 2.52 0.8v0h12.45l0.2 3.4c-2.167 0.167-4.373 0.267-6.62 0.3-2.253 0.033-4.497 0.05-6.73 0.05v0c-2.533 0-4.333-0.617-5.4-1.85-1.067-1.233-1.6-2.783-1.6-4.65v0zM185.25 4.3h4.6c0.4 0 0.75 0.107 1.05 0.32 0.3 0.22 0.5 0.513 0.6 0.88v0l11.1 33.3h-4.55l-8.95-28.3c-0.133-0.467-0.273-0.943-0.42-1.43-0.153-0.48-0.297-0.937-0.43-1.37v0h-1.4c-0.133 0.433-0.267 0.89-0.4 1.37-0.133 0.487-0.283 0.963-0.45 1.43v0l-8.95 28.3h-4.55l11.1-33.3c0.1-0.367 0.3-0.66 0.6-0.88 0.3-0.213 0.65-0.32 1.05-0.32zM178.75 24.2h17.5v3.8h-17.5zM212.45 4.3h4.4v34.5h-4.4zM201.35 4.3h26.65v3.9h-26.65zM245.2 3.65v0c2.5 0 4.627 0.3 6.38 0.9 1.747 0.6 3.147 1.59 4.2 2.97 1.047 1.387 1.813 3.23 2.3 5.53 0.48 2.3 0.72 5.133 0.72 8.5v0c0 3.367-0.24 6.2-0.72 8.5-0.487 2.3-1.253 4.14-2.3 5.52-1.053 1.387-2.453 2.38-4.2 2.98-1.753 0.6-3.88 0.9-6.38 0.9v0c-2.5 0-4.623-0.3-6.37-0.9-1.753-0.6-3.163-1.593-4.23-2.98-1.067-1.38-1.84-3.22-2.32-5.52-0.487-2.3-0.73-5.133-0.73-8.5v0c0-3.367 0.243-6.2 0.73-8.5 0.48-2.3 1.253-4.143 2.32-5.53 1.067-1.38 2.477-2.37 4.23-2.97 1.747-0.6 3.87-0.9 6.37-0.9zM245.2 7.6v0c-2.267 0-4.057 0.433-5.37 1.3-1.32 0.867-2.253 2.307-2.8 4.32-0.553 2.02-0.83 4.797-0.83 8.33v0c0 3.5 0.277 6.267 0.83 8.3 0.547 2.033 1.48 3.483 2.8 4.35 1.313 0.867 3.103 1.3 5.37 1.3v0c2.267 0 4.06-0.433 5.38-1.3 1.313-0.867 2.247-2.317 2.8-4.35 0.547-2.033 0.82-4.8 0.82-8.3v0c0-3.533-0.273-6.31-0.82-8.33-0.553-2.013-1.487-3.453-2.8-4.32-1.32-0.867-3.113-1.3-5.38-1.3zM278.15 3.85v0c2.667 0 4.817 0.29 6.45 0.87 1.633 0.587 2.827 1.597 3.58 3.03 0.747 1.433 1.12 3.45 1.12 6.05v0c0 1.867-0.217 3.423-0.65 4.67-0.433 1.253-1.107 2.22-2.02 2.9-0.92 0.687-2.147 1.13-3.68 1.33v0 0.25c0.567 0.133 1.127 0.407 1.68 0.82 0.547 0.42 1.053 0.97 1.52 1.65 0.467 0.687 0.817 1.513 1.05 2.48v0l3.35 10.9h-4.7l-3.05-10.8c-0.433-1.3-1.017-2.227-1.75-2.78-0.733-0.547-1.683-0.82-2.85-0.82v0c-2.033 0-3.8-0.01-5.3-0.03-1.5-0.013-2.75-0.037-3.75-0.07-1-0.033-1.8-0.05-2.4-0.05v0l0.15-3.65h11.15c1.7-0.033 3.043-0.233 4.03-0.6 0.98-0.367 1.687-1.027 2.12-1.98 0.433-0.947 0.65-2.27 0.65-3.97v0c0-1.7-0.217-3.01-0.65-3.93-0.433-0.913-1.14-1.553-2.12-1.92-0.987-0.367-2.33-0.55-4.03-0.55v0c-2.733 0-5.09 0.017-7.07 0.05-1.987 0.033-3.33 0.05-4.03 0.05v0l-0.7-3.45c1.267-0.133 2.45-0.233 3.55-0.3 1.1-0.067 2.31-0.11 3.63-0.13 1.313-0.013 2.887-0.02 4.72-0.02zM266.25 4.3h4.35v34.5h-4.35z"
                                  fill="#ffffff"
                                  fill-rule="nonzero"
                                  stroke="none"
                                  stroke-width="1"
                                  stroke-linecap="butt"
                                  stroke-linejoin="miter"
                                  stroke-miterlimit="10"
                                  stroke-dasharray=""
                                  stroke-dashoffset="0"
                                  font-family="none"
                                  font-weight="none"
                                  font-size="none"
                                  text-anchor="none"
                                  style="mix-blend-mode: normal"
                                  data-fill-palette-color="primary"
                                  opacity="1"
                                ></path>
                              </g>
                            </svg>
                          </g>
                        </svg>
                      </g>
                    </svg>
                  </g>
                </svg>
              </g>
              <g transform="matrix(1,0,0,1,0,0.22354225782956405)">
                <svg
                  viewBox="0 0 89.34832739044252 89.41690313182811"
                  height="89.41690313182811"
                  width="89.34832739044252"
                >
                  <g>
                    <svg
                      xmlns="http://www.w3.org/2000/svg"
                      xmlns:xlink="http://www.w3.org/1999/xlink"
                      version="1.1"
                      x="0"
                      y="0"
                      viewBox="5.0095295906066895 4.949999809265137 89.98094177246094 90.05000305175781"
                      enable-background="new 0 0 100 100"
                      xml:space="preserve"
                      height="89.41690313182811"
                      width="89.34832739044252"
                      class="icon-icon-0"
                      data-fill-palette-color="accent"
                      id="icon-0"
                    >
                      <path
                        d="M7.5 52.5H15v40c0 1.4 1.1 2.5 2.5 2.5h65c1.4 0 2.5-1.1 2.5-2.5v-40h7.5c2.2 0 3.3-2.7 1.8-4.3L51.8 5.7c-1-1-2.6-1-3.5 0L5.7 48.2C4.2 49.8 5.3 52.5 7.5 52.5zM50 11l36.5 36.5h-4c-1.4 0-2.5 1.1-2.5 2.5v40H20V50c0-1.4-1.1-2.5-2.5-2.5h-4L50 11z"
                        fill="#ffffff"
                        data-fill-palette-color="accent"
                      ></path>
                      <path
                        d="M35.7 74.3c0.5 0.5 1.1 0.7 1.8 0.7s1.3-0.2 1.8-0.7l25-25c1-1 1-2.6 0-3.5-1-1-2.6-1-3.5 0l-25 25C34.8 71.7 34.8 73.3 35.7 74.3z"
                        fill="#ffffff"
                        data-fill-palette-color="accent"
                      ></path>
                      <path
                        d="M52.5 70c0 4.1 3.4 7.5 7.5 7.5s7.5-3.4 7.5-7.5-3.4-7.5-7.5-7.5S52.5 65.9 52.5 70zM62.5 70c0 1.4-1.1 2.5-2.5 2.5s-2.5-1.1-2.5-2.5 1.1-2.5 2.5-2.5S62.5 68.6 62.5 70z"
                        fill="#ffffff"
                        data-fill-palette-color="accent"
                      ></path>
                      <path
                        d="M40 57.5c4.1 0 7.5-3.4 7.5-7.5s-3.4-7.5-7.5-7.5-7.5 3.4-7.5 7.5S35.9 57.5 40 57.5zM40 47.5c1.4 0 2.5 1.1 2.5 2.5s-1.1 2.5-2.5 2.5-2.5-1.1-2.5-2.5S38.6 47.5 40 47.5z"
                        fill="#ffffff"
                        data-fill-palette-color="accent"
                      ></path>
                    </svg>
                  </g>
                </svg>
              </g>
            </svg>
          </g>
          <defs></defs>
        </svg>
        <rect
          width="395.52"
          height="69.9575278610469"
          fill="none"
          stroke="none"
          visibility="hidden"
        ></rect>
      </g>
    </svg>
  </g>
</svg>
