<svg
  xmlns="http://www.w3.org/2000/svg"
  xmlns:xlink="http://www.w3.org/1999/xlink"
  version="1.1"
  x="0"
  y="0"
  viewBox="5.0095295906066895 4.949999809265137 89.98094177246094 90.05000305175781"
  enable-background="new 0 0 100 100"
  xml:space="preserve"
  height="89.41690313182811"
  width="89.34832739044252"
  class="icon-icon-0"
  data-fill-palette-color="accent"
  id="icon-0"
>
  <path
    d="M7.5 52.5H15v40c0 1.4 1.1 2.5 2.5 2.5h65c1.4 0 2.5-1.1 2.5-2.5v-40h7.5c2.2 0 3.3-2.7 1.8-4.3L51.8 5.7c-1-1-2.6-1-3.5 0L5.7 48.2C4.2 49.8 5.3 52.5 7.5 52.5zM50 11l36.5 36.5h-4c-1.4 0-2.5 1.1-2.5 2.5v40H20V50c0-1.4-1.1-2.5-2.5-2.5h-4L50 11z"
    fill="#ffffff"
    data-fill-palette-color="accent"
  ></path>
  <path
    d="M35.7 74.3c0.5 0.5 1.1 0.7 1.8 0.7s1.3-0.2 1.8-0.7l25-25c1-1 1-2.6 0-3.5-1-1-2.6-1-3.5 0l-25 25C34.8 71.7 34.8 73.3 35.7 74.3z"
    fill="#ffffff"
    data-fill-palette-color="accent"
  ></path>
  <path
    d="M52.5 70c0 4.1 3.4 7.5 7.5 7.5s7.5-3.4 7.5-7.5-3.4-7.5-7.5-7.5S52.5 65.9 52.5 70zM62.5 70c0 1.4-1.1 2.5-2.5 2.5s-2.5-1.1-2.5-2.5 1.1-2.5 2.5-2.5S62.5 68.6 62.5 70z"
    fill="#ffffff"
    data-fill-palette-color="accent"
  ></path>
  <path
    d="M40 57.5c4.1 0 7.5-3.4 7.5-7.5s-3.4-7.5-7.5-7.5-7.5 3.4-7.5 7.5S35.9 57.5 40 57.5zM40 47.5c1.4 0 2.5 1.1 2.5 2.5s-1.1 2.5-2.5 2.5-2.5-1.1-2.5-2.5S38.6 47.5 40 47.5z"
    fill="#ffffff"
    data-fill-palette-color="accent"
  ></path>
</svg>
